<?xml version="1.0" standalone="no"?>
<!DOCTYPE svg PUBLIC "-//W3C//DTD SVG 20010904//EN"
 "http://www.w3.org/TR/2001/REC-SVG-20010904/DTD/svg10.dtd">
<svg version="1.0" xmlns="http://www.w3.org/2000/svg"
 width="454.000000pt" height="454.000000pt" viewBox="0 0 454.000000 454.000000"
 preserveAspectRatio="xMidYMid meet">
<metadata>
Created by potrace 1.11, written by Peter Selinger 2001-2013
</metadata>
<g transform="translate(0.000000,454.000000) scale(0.100000,-0.100000)"
fill="#000000" stroke="none">
<path d="M3300 4250 c-8 -5 -26 -10 -39 -10 -14 0 -38 -4 -55 -9 -17 -6 -58
-15 -91 -22 -62 -13 -135 -46 -135 -62 0 -5 -11 -6 -25 -3 -22 6 -33 -1 -73
-44 -25 -27 -52 -50 -60 -50 -7 0 -10 5 -7 10 4 6 8 22 11 36 l5 26 -30 -21
c-16 -12 -31 -21 -34 -21 -9 0 -112 -65 -115 -72 -2 -5 -8 -8 -13 -8 -13 0
-126 -77 -131 -88 -1 -5 -13 -13 -25 -16 -28 -9 -30 7 -4 33 11 11 17 22 13
25 -3 3 1 6 9 6 8 1 34 21 59 45 49 48 50 45 -22 49 -43 2 -29 23 21 30 52 7
64 16 126 91 17 20 36 43 43 51 17 18 8 17 -47 -2 -112 -39 -320 -182 -445
-306 -54 -54 -101 -98 -106 -98 -4 0 -34 -13 -66 -29 -32 -16 -93 -46 -134
-65 -41 -20 -95 -48 -120 -62 -98 -59 -152 -86 -157 -80 -7 7 16 42 54 81 16
17 47 50 69 74 l39 44 -32 -5 c-41 -6 -44 13 -5 33 15 8 36 22 46 32 11 9 26
17 33 17 8 0 11 5 8 10 -3 6 -1 10 4 10 6 0 11 9 11 20 0 11 4 20 8 20 4 0 13
14 19 30 10 26 9 30 -6 30 -9 0 -33 -14 -54 -31 -40 -33 -60 -32 -39 1 19 31
15 31 -38 -3 -28 -18 -61 -39 -74 -47 -13 -8 -58 -39 -101 -67 -42 -29 -79
-53 -82 -53 -10 0 -61 -60 -99 -119 -21 -33 -45 -60 -51 -61 -15 0 -15 -3 -3
40 l9 35 -22 -25 c-12 -14 -33 -41 -47 -59 -14 -17 -33 -42 -43 -53 -9 -12
-17 -25 -17 -30 0 -4 -7 -8 -15 -8 -8 0 -15 5 -15 11 0 14 80 178 104 214 72
104 184 344 210 450 l8 30 -20 -26 c-11 -13 -30 -44 -42 -67 -25 -48 -46 -56
-35 -14 12 49 -120 -92 -155 -165 -32 -67 -50 -80 -50 -35 0 22 -10 13 -56
-60 -69 -109 -94 -118 -57 -20 39 103 40 106 15 100 -31 -8 -27 4 13 48 19 21
35 44 35 52 0 8 10 45 21 83 12 39 19 72 16 75 -5 6 -77 -105 -77 -119 0 -5
-7 -7 -15 -3 -11 4 -22 -8 -38 -42 -27 -54 -55 -103 -92 -163 -32 -50 -110
-207 -118 -238 -8 -31 -27 -26 -22 7 2 15 7 54 9 87 6 67 19 145 36 220 18 80
40 259 32 267 -11 11 -128 -173 -140 -222 -6 -25 -13 -65 -16 -90 -3 -25 -5
-46 -5 -47 -3 -12 -21 1 -21 15 -1 34 -27 -31 -55 -138 -27 -103 -33 -127 -34
-142 -1 -5 -8 -8 -18 -8 -14 0 -15 11 -9 103 3 56 10 120 13 142 4 22 7 55 8
73 0 17 4 32 9 32 5 0 6 3 3 7 -4 3 -16 -2 -27 -12 -30 -27 -34 -13 -16 57 22
87 26 138 12 138 -6 0 -17 -15 -25 -32 -8 -18 -29 -67 -48 -108 -58 -126 -65
-155 -70 -317 -5 -143 -13 -184 -26 -130 -3 12 -7 54 -8 92 -1 39 -6 86 -10
105 -4 19 -10 60 -13 90 -14 134 -19 160 -27 160 -11 0 -36 -90 -43 -155 -3
-27 -8 -70 -11 -95 -8 -64 -14 -158 -15 -207 0 -24 -4 -43 -8 -43 -5 0 -21 37
-37 82 -21 60 -30 76 -35 62 -10 -27 -10 -177 0 -243 20 -130 20 -152 4 -149
-18 3 -28 31 -69 177 -16 55 -32 98 -37 95 -4 -3 -6 -58 -3 -122 4 -106 11
-165 31 -274 8 -44 -8 -51 -28 -14 -7 14 -24 46 -38 72 l-25 47 -3 -39 c-1
-22 14 -104 37 -189 21 -82 49 -190 61 -240 31 -121 95 -343 111 -380 6 -16
13 -35 15 -42 10 -50 154 -313 191 -351 7 -7 13 -20 13 -28 0 -24 19 -16 35
16 24 47 141 150 170 150 9 0 -4 -85 -13 -86 -7 -1 -27 -2 -45 -3 -28 -1 -37
-8 -55 -40 -12 -21 -22 -46 -22 -55 0 -10 -5 -14 -11 -11 -12 8 -8 -27 5 -36
4 -4 -2 -21 -15 -39 -23 -31 -24 -31 -27 -8 -6 57 -13 88 -20 88 -4 0 -8 -9
-9 -20 -1 -11 3 -20 8 -20 6 0 8 -40 6 -101 -2 -55 0 -102 5 -105 5 -3 8 -11
6 -17 -3 -18 12 -57 23 -57 5 0 9 7 9 15 0 8 -4 15 -9 15 -12 0 -20 46 -11 61
4 6 13 9 19 5 6 -4 9 -2 5 7 -5 13 69 87 87 87 4 0 15 -10 23 -22 11 -16 13
-25 4 -35 -6 -8 -7 -13 0 -13 16 0 37 31 25 38 -5 4 -15 17 -22 30 -16 30 -34
28 -74 -8 -59 -51 -72 -36 -38 44 20 45 20 45 64 41 41 -5 44 -3 60 30 9 19
12 35 7 35 -6 0 -16 -11 -22 -25 -13 -28 -23 -30 -65 -12 -28 11 -29 14 -19
42 20 54 30 63 80 70 l49 8 -6 -37 c-5 -29 -3 -36 10 -36 9 0 14 -3 10 -6 -3
-4 0 -22 8 -41 8 -19 13 -39 10 -43 -3 -4 1 -10 9 -13 7 -3 16 -14 18 -25 4
-15 -2 -22 -28 -33 -50 -19 -41 -31 9 -12 41 15 45 15 72 -3 55 -36 151 -25
209 23 15 13 36 21 45 19 9 -3 48 -8 86 -11 39 -3 113 -14 165 -25 155 -31
162 -32 158 -18 -3 7 -19 12 -39 11 -19 0 -45 5 -59 12 -20 10 -75 21 -122 24
-9 1 -11 35 -3 42 2 3 44 -3 92 -13 104 -21 175 -29 168 -18 -2 4 -19 10 -37
13 -77 14 -146 28 -188 37 -25 6 -74 13 -110 16 -35 2 -67 10 -71 16 -7 11 17
96 31 111 11 13 55 -19 69 -49 6 -15 9 -35 5 -46 -5 -17 -3 -18 14 -9 12 6 24
16 27 21 10 15 82 50 104 50 11 0 22 -8 25 -17 10 -28 45 -71 43 -52 -2 10 -8
23 -14 30 -6 8 -13 25 -15 39 -3 23 0 25 46 28 68 4 91 -3 104 -33 17 -37 15
-45 -13 -45 -14 0 -25 -4 -25 -8 0 -4 -10 -8 -21 -9 -24 -2 -35 -10 -26 -19 3
-4 29 1 56 10 62 20 61 20 61 -3 0 -11 6 -26 13 -33 8 -7 13 -21 11 -31 -1 -9
2 -15 7 -11 19 12 8 -18 -16 -42 -17 -17 -30 -23 -38 -17 -7 5 -25 6 -42 2
-34 -8 -32 -10 9 -15 49 -5 58 -12 51 -36 -6 -22 -5 -22 9 -4 9 10 13 22 11
26 -8 13 27 21 40 10 9 -7 11 -32 7 -82 -4 -57 -9 -76 -26 -90 -27 -23 -36
-22 -36 1 0 11 -5 23 -10 26 -14 9 -3 -50 17 -92 24 -51 88 -100 144 -112 27
-6 53 -10 57 -10 32 5 40 -2 35 -33 -15 -108 -78 -240 -158 -337 -135 -162
-303 -341 -321 -341 -7 0 -16 -4 -19 -10 -7 -12 21 -2 51 17 19 12 26 11 55
-6 40 -24 48 -50 36 -108 -9 -45 11 -103 37 -103 72 0 217 177 329 400 92 187
134 298 143 383 8 78 23 87 53 29 44 -85 178 -272 195 -271 7 0 6 2 -2 6 -6 2
-10 9 -7 14 3 4 -5 41 -19 81 -13 40 -27 85 -30 100 -3 14 -9 33 -12 42 -4 11
-1 16 11 16 17 0 40 -18 43 -33 1 -10 44 -58 92 -105 19 -19 59 -47 88 -64 28
-16 50 -34 47 -39 -25 -39 159 -179 235 -179 30 0 25 10 -35 68 -57 56 -69 78
-35 67 16 -5 20 -2 20 14 0 25 9 26 36 6 25 -19 35 -19 28 0 -14 35 26 11 83
-50 33 -36 65 -65 69 -65 5 0 18 -14 29 -30 11 -16 24 -30 29 -30 13 0 126
-123 126 -137 0 -8 7 -16 15 -19 8 -4 13 -10 10 -14 -2 -4 4 -15 15 -25 19
-18 20 -17 20 11 0 16 -5 46 -10 66 -6 21 -11 40 -11 43 3 37 -117 255 -140
255 -4 0 -10 8 -13 18 -3 9 -22 34 -42 55 -19 20 -33 37 -31 37 4 0 -37 51
-78 95 -23 25 -31 55 -15 55 6 0 27 -11 48 -24 20 -14 73 -39 117 -56 152 -59
341 -162 353 -192 2 -4 8 -6 13 -2 5 3 9 2 9 -3 0 -4 14 -24 30 -43 16 -19 30
-39 30 -43 0 -5 16 -25 35 -45 l35 -37 -5 51 c-2 28 -9 64 -15 80 -23 59 -94
191 -142 262 -86 127 -139 171 -328 270 -191 100 -204 107 -215 117 -6 6 -28
21 -48 35 -20 14 -37 31 -37 38 0 7 4 11 8 8 4 -2 13 -1 20 3 8 5 -12 25 -56
58 -37 29 -82 66 -101 82 -19 17 -38 31 -43 31 -4 0 -8 5 -8 11 0 11 32 7 95
-11 77 -22 158 -32 284 -35 75 -2 208 -7 296 -11 88 -4 177 -8 197 -8 45 -2
245 12 273 18 11 2 67 5 125 6 l105 1 -45 20 c-25 11 -53 21 -62 22 -10 1 -18
4 -18 7 0 3 -33 16 -72 30 -40 13 -88 32 -106 42 -18 10 -44 19 -58 20 -13 1
-24 5 -24 9 0 3 -21 12 -47 19 -27 8 -50 17 -53 21 -12 16 -171 57 -263 66
-32 3 -60 9 -62 13 -7 12 32 20 230 46 22 3 101 23 175 44 74 21 153 41 175
44 106 18 244 62 265 85 3 3 14 8 25 9 34 6 120 57 102 60 -9 2 -17 7 -17 11
0 11 -129 40 -220 50 -65 7 -315 6 -499 -2 -34 -2 -61 0 -61 4 0 10 85 36 141
44 41 5 46 8 41 27 -5 19 -2 20 24 13 36 -10 78 -10 101 0 10 5 27 10 38 11
77 14 82 28 12 39 -48 7 -127 35 -127 44 0 3 44 5 97 4 54 -2 213 -5 353 -7
140 -3 275 -8 300 -11 l45 -5 -52 24 c-100 47 -49 58 92 21 17 -4 36 -12 43
-18 9 -7 29 -6 65 1 29 7 63 13 77 15 24 3 24 4 -10 20 -19 10 -42 21 -50 26
-8 5 -51 24 -95 42 -44 17 -89 35 -100 40 -64 26 -275 91 -370 113 -16 4 -78
15 -110 20 -102 15 -123 31 -52 39 23 3 60 8 82 12 63 10 96 14 155 21 84 10
85 16 15 54 -65 35 -85 57 -42 47 12 -3 58 -15 101 -26 77 -20 123 -20 176 -1
24 8 70 20 99 26 8 2 26 6 40 9 l26 7 -25 13 c-31 16 -107 27 -182 26 -47 0
-58 2 -58 16 0 9 3 14 6 10 3 -3 19 -1 36 5 16 6 26 14 21 19 -8 8 -76 24
-148 35 -50 8 -128 25 -155 34 -33 12 -85 19 -190 26 -83 6 -139 -4 -342 -63
-12 -4 -18 0 -18 11 0 9 4 16 8 16 5 0 17 8 28 18 19 18 26 22 42 22 4 0 18
10 32 21 l25 20 -45 -6 c-25 -3 -67 -8 -95 -11 -27 -4 -54 -10 -60 -14 -5 -4
-37 -11 -69 -15 -33 -4 -65 -9 -73 -12 -7 -3 -13 0 -13 6 0 6 21 20 48 32 26
11 64 29 85 40 22 10 44 19 50 19 6 0 29 8 51 19 43 19 116 43 205 67 29 8 59
18 65 21 6 4 17 8 24 9 8 2 28 9 45 17 18 8 50 22 72 31 21 9 42 20 45 24 3 4
46 27 95 52 50 24 109 57 131 72 23 15 48 28 55 28 9 0 8 4 -4 11 -13 7 -27 7
-49 0 -41 -15 -48 -14 -48 5 0 13 -8 15 -47 10 -27 -3 -110 -8 -186 -12 -118
-6 -146 -10 -185 -30 -49 -25 -72 -30 -72 -16 0 4 5 13 12 20 18 18 -8 15 -72
-8 -30 -11 -69 -20 -85 -20 -17 0 -35 -4 -40 -9 -6 -5 -28 -11 -50 -13 -60 -5
-51 18 30 73 39 27 73 48 77 49 4 0 29 15 55 33 47 31 47 32 21 35 -54 6 -25
32 35 32 53 0 96 17 126 49 16 17 32 31 35 31 9 0 76 64 76 74 0 11 -43 0 -97
-25 -50 -23 -53 -23 -53 -4 0 23 -50 18 -135 -16 -11 -4 -31 -10 -45 -12 -78
-15 -187 -51 -305 -101 -93 -40 -115 -45 -115 -26 0 14 32 44 155 145 76 62
182 172 238 248 30 39 33 64 7 47z m-1980 -407 c0 -19 -167 -334 -196 -370
l-34 -41 30 11 c16 6 32 8 35 5 8 -8 -30 -76 -106 -188 -72 -106 -111 -150
-135 -150 -14 -1 -11 -5 12 -18 49 -27 77 -53 122 -112 42 -56 76 -124 86
-170 19 -86 25 -124 31 -200 4 -46 9 -88 11 -92 6 -9 6 -111 1 -148 -9 -62
-20 -90 -33 -90 -9 0 -13 4 -9 10 10 17 4 184 -11 275 -15 96 -60 267 -80 308
-13 27 -24 53 -24 58 0 12 -47 77 -75 103 -54 50 -131 59 -188 21 -45 -31 -48
-41 -6 -20 90 47 194 -9 254 -138 57 -124 134 -532 111 -592 -4 -13 -9 -12
-34 2 -21 12 -46 51 -93 146 -45 92 -80 147 -118 188 -30 32 -58 56 -63 53 -4
-3 -6 -9 -3 -14 3 -5 1 -11 -4 -14 -5 -3 -11 -25 -15 -48 -10 -76 -18 -243
-11 -236 7 7 17 97 19 170 1 27 4 48 7 48 3 0 5 14 4 30 -1 17 4 35 12 41 9 8
13 8 13 1 0 -6 21 -33 46 -59 25 -26 56 -72 70 -100 83 -179 80 -173 65 -173
-5 0 -24 26 -42 58 -18 31 -43 70 -56 85 -13 16 -26 39 -29 53 -3 13 -10 24
-15 24 -5 0 -9 7 -9 15 0 8 -7 15 -15 15 -16 0 -16 0 -20 -50 -1 -19 -6 -59
-10 -88 -3 -29 -8 -78 -9 -110 l-3 -57 14 45 c7 25 16 70 19 100 9 85 10 89
17 96 4 4 10 -2 14 -12 3 -10 10 -21 13 -24 4 -3 26 -36 48 -73 27 -44 37 -69
29 -72 -7 -2 -29 -6 -50 -10 -28 -4 -51 -19 -87 -56 l-48 -49 -17 32 c-25 48
-84 213 -90 251 -3 17 -8 46 -12 62 -3 17 -7 80 -7 142 -1 62 -5 115 -9 119
-4 4 -7 0 -7 -9 0 -9 -5 -17 -11 -17 -6 0 -8 7 -5 16 3 9 6 22 6 30 0 8 5 14
11 14 5 0 7 -4 4 -10 -3 -5 -1 -10 4 -10 13 0 15 57 2 62 -5 2 -4 19 3 39 12
33 11 36 -5 32 -14 -4 -18 4 -21 49 -2 29 0 56 5 59 6 4 7 19 5 33 -4 20 -1
26 13 26 11 0 19 1 19 3 0 2 -9 43 -19 91 l-19 88 28 102 c35 124 75 235 107
301 45 89 79 110 63 38 -5 -21 -12 -60 -15 -88 -3 -27 -8 -61 -11 -75 -2 -14
-7 -38 -10 -55 -3 -16 -10 -48 -16 -70 -5 -22 -12 -48 -13 -57 -2 -9 -9 -26
-15 -38 -18 -33 -5 -35 24 -4 14 16 28 25 32 22 3 -4 -12 -78 -34 -165 -22
-87 -37 -159 -32 -161 5 -2 19 3 32 11 13 8 39 20 58 26 33 10 38 18 62 84 15
39 40 107 56 149 16 42 28 79 25 82 -2 2 0 7 6 11 6 3 11 3 11 -2 1 -23 13
-89 16 -92 2 -2 5 23 5 57 1 34 2 70 3 80 2 19 33 80 50 97 6 7 27 31 46 55
99 124 220 235 220 203z m-915 -274 c4 -12 8 -31 9 -42 2 -12 11 -49 21 -82
20 -68 20 -148 0 -210 -3 -11 1 -7 10 8 9 16 19 26 22 24 3 -3 6 -45 8 -94 7
-174 20 -415 29 -515 2 -21 -1 -38 -5 -38 -18 0 -92 194 -108 286 -6 33 -13
70 -16 84 -4 20 -15 97 -17 120 -1 19 5 20 29 4 l28 -17 -20 29 c-45 69 -47
94 -30 289 4 50 9 106 11 125 3 51 3 50 13 50 5 0 13 -9 16 -21z m3135 -13 c0
-7 -46 -30 -102 -51 -57 -21 -129 -49 -160 -61 -47 -20 -154 -54 -253 -81 -11
-3 -51 -10 -90 -15 -113 -16 -119 -21 -50 -47 105 -38 104 -37 75 -49 -14 -5
-45 -13 -70 -16 -69 -10 -97 -15 -127 -27 -15 -6 -45 -13 -66 -16 -20 -2 -77
-13 -125 -24 -101 -22 -90 -19 -212 -54 -52 -15 -106 -29 -120 -32 -14 -2 -29
-8 -35 -14 -5 -5 -15 -9 -21 -9 -17 0 -146 -61 -209 -99 -56 -34 -65 -36 -65
-18 0 17 251 198 356 257 21 13 84 45 139 73 55 28 102 55 103 59 2 4 9 8 15
8 6 0 53 25 105 56 51 31 96 54 98 51 3 -3 -8 -32 -25 -66 -37 -72 -20 -71 29
1 47 69 57 78 89 78 15 0 31 3 35 7 3 4 12 8 19 9 7 1 48 12 92 24 44 11 96
23 115 25 19 2 50 9 67 14 42 12 48 1 20 -35 l-22 -29 30 19 c17 10 39 26 50
36 37 32 53 35 185 37 100 2 130 -1 130 -11z m-1671 -1154 c-13 -15 -28 -30
-34 -34 -33 -25 55 2 140 43 13 6 32 6 55 -1 19 -6 80 -22 135 -36 94 -23 220
-61 239 -72 31 -18 -135 -22 -309 -8 -66 5 -69 5 -42 -10 25 -14 37 -34 19
-34 -5 0 -26 9 -48 19 -22 11 -53 23 -68 27 l-28 7 17 -27 c20 -30 15 -31 -62
-10 -32 8 -65 17 -73 19 -250 61 -284 71 -287 82 -2 5 2 10 9 10 13 0 74 10
113 17 11 2 49 7 85 11 36 4 73 10 82 14 9 3 32 7 49 8 l32 2 -24 -27z m1621
-78 c49 -5 70 -11 70 -20 0 -22 -100 -60 -300 -114 -63 -17 -137 -39 -165 -50
-95 -37 -161 -42 -258 -22 -48 11 -87 15 -87 10 0 -4 5 -8 10 -8 6 0 10 -5 10
-10 0 -7 -31 -8 -87 -5 -49 3 -191 8 -318 10 -199 4 -417 23 -433 39 -2 3 -1
10 3 16 5 7 74 10 223 8 209 -3 290 1 416 22 73 12 89 25 53 41 -29 13 -35 27
-14 33 15 5 100 21 192 37 39 6 76 14 83 17 23 8 12 -16 -23 -49 -19 -18 -33
-34 -31 -36 2 -2 45 19 97 47 l94 50 197 -5 c109 -3 229 -8 268 -11z m-2472
-29 c2 -2 -8 -25 -21 -52 -13 -26 -35 -78 -48 -115 -24 -67 -42 -84 -54 -50
-3 9 -17 31 -31 47 l-25 30 12 -30 c7 -16 18 -37 25 -45 6 -8 15 -25 18 -37 4
-13 10 -23 14 -23 7 0 62 112 62 127 1 21 67 139 77 136 11 -4 6 -40 -8 -59
-5 -6 -6 -14 -2 -17 3 -4 2 -7 -3 -7 -8 0 -34 -54 -39 -80 -5 -24 -18 -50 -27
-50 -5 0 -8 -7 -4 -15 3 -8 1 -15 -4 -15 -5 0 -12 -11 -16 -25 -7 -26 -34 -56
-34 -36 0 6 -7 11 -16 11 -8 0 -12 5 -9 10 3 6 1 10 -4 10 -6 0 -11 7 -11 17
0 9 -3 13 -7 10 -3 -4 4 -28 17 -54 13 -26 25 -42 28 -35 2 7 7 10 12 7 4 -3
12 1 17 8 15 18 92 189 113 250 10 28 22 52 26 52 19 0 35 -83 29 -155 -8
-117 -13 -142 -39 -192 -25 -53 -23 -61 9 -24 15 17 27 58 40 130 10 59 22
106 26 106 17 0 -11 -213 -30 -230 -3 -3 -17 -26 -31 -52 -16 -32 -31 -48 -43
-48 -13 0 -17 5 -14 14 4 10 1 13 -9 9 -11 -4 -12 -9 -3 -19 11 -14 4 -52 -8
-40 -3 3 -16 0 -27 -7 -29 -19 -108 -14 -132 9 -21 19 -92 169 -98 207 -10 65
18 43 38 -30 19 -68 56 -147 64 -138 3 2 0 10 -6 18 -6 7 -14 28 -17 47 -3 19
-13 48 -21 64 -8 16 -17 61 -21 100 -3 39 -10 74 -15 77 -13 9 38 109 71 138
50 45 151 71 179 46z m182 -91 c0 -8 -5 -14 -12 -14 -9 0 -9 -3 0 -12 7 -7 18
-13 25 -13 19 0 111 -38 118 -48 4 -6 14 -7 23 -4 18 7 153 -54 226 -103 79
-51 81 -53 79 -38 -3 24 1 38 11 38 21 0 80 -46 80 -62 0 -22 -18 -23 -41 -2
-14 12 -18 13 -25 2 -4 -7 -4 -10 0 -7 6 6 86 -63 86 -74 0 -15 -36 -14 -58 2
-15 10 -43 24 -63 31 -21 7 -44 26 -53 42 -10 16 -29 36 -42 45 -28 18 -93 19
-124 3 -16 -8 -22 -5 -37 20 -9 16 -24 30 -32 30 -11 0 -9 -5 7 -16 31 -22 28
-32 -18 -44 -39 -11 -64 -29 -73 -52 -5 -16 -7 -14 -35 45 -23 50 -22 67 4 67
8 0 12 4 9 10 -3 5 5 15 19 22 14 6 26 15 26 19 0 8 -86 -13 -116 -29 -18 -10
-19 -7 -18 59 0 46 -4 73 -13 81 -21 17 -15 25 17 20 17 -2 30 -10 30 -18z
m128 -27 c20 -15 14 -27 -13 -25 -14 1 -25 6 -25 11 0 4 -3 6 -8 3 -4 -2 -22
2 -39 9 -22 9 -31 19 -27 29 5 12 11 12 52 -1 26 -9 53 -20 60 -26z m102 -36
c71 -23 75 -59 5 -37 -27 8 -85 41 -85 48 0 12 19 9 80 -11z m-743 -48 c-15
-16 -17 -16 -17 -1 0 9 6 18 13 21 20 7 22 -2 4 -20z m873 -13 c19 -11 43 -22
52 -26 20 -7 29 -27 19 -42 -4 -7 -22 -1 -54 19 -26 16 -51 29 -57 29 -5 0
-10 9 -10 20 0 24 5 24 50 0z m635 -24 c17 -3 131 -7 255 -11 207 -6 367 -18
378 -30 3 -3 -19 -16 -49 -30 -62 -29 -40 -29 74 1 60 15 78 16 138 6 38 -7
77 -16 87 -21 40 -20 73 -34 172 -70 147 -54 143 -64 -21 -57 -74 3 -145 7
-159 10 -14 3 -47 7 -75 10 -67 7 -116 17 -140 28 -11 5 -5 -2 13 -17 37 -31
42 -50 10 -42 -57 13 -198 68 -248 96 -57 32 -89 41 -56 16 11 -8 31 -25 45
-38 15 -13 34 -26 44 -30 17 -6 24 -27 10 -27 -5 0 -35 7 -68 15 -33 8 -70 14
-83 15 -13 0 -56 14 -95 32 -40 17 -135 53 -212 78 -94 32 -141 52 -143 63 -3
16 24 16 123 3z m-1575 -15 c0 -5 -7 -11 -15 -15 -15 -5 -20 5 -8 17 9 10 23
9 23 -2z m1174 -137 c4 -9 4 -19 1 -22 -6 -6 -35 18 -35 29 0 16 28 10 34 -7z
m-112 -40 l31 -16 -24 -19 c-13 -10 -27 -19 -31 -19 -5 0 -28 54 -28 66 0 9
23 3 52 -12z m-452 -33 c22 -4 36 -13 38 -25 4 -17 -1 -18 -54 -12 -32 3 -61
12 -66 19 -6 9 -8 8 -8 -4 0 -12 -8 -15 -26 -13 -34 3 -36 7 -19 31 15 21 45
22 135 4z m672 -17 c25 -13 26 -17 16 -34 -13 -20 -48 -28 -48 -10 0 5 -7 7
-15 4 -18 -7 -47 14 -39 27 3 5 0 9 -5 9 -6 0 -11 -7 -11 -15 0 -8 -4 -16 -10
-16 -5 -1 -13 -2 -17 -4 -52 -14 -62 -18 -58 -25 8 -13 -23 -20 -33 -7 -18 24
-25 40 -15 34 6 -4 13 -1 16 7 5 13 71 49 107 59 18 5 75 -10 112 -29z m317
-81 c13 -29 14 -33 3 -33 -15 0 -92 73 -92 87 0 22 75 -24 89 -54z m-246 16
c43 -50 47 -99 8 -96 -12 1 -21 5 -21 9 0 4 0 10 0 13 0 3 -7 19 -16 36 -25
50 -5 78 29 38z m-96 -21 c34 -24 48 -50 58 -108 7 -44 -19 -90 -65 -112 -100
-48 -193 70 -145 185 8 20 23 41 32 46 30 18 85 12 120 -11z m151 -130 c4 -23
-38 -108 -53 -108 -7 0 -19 8 -28 18 -15 16 -15 20 3 47 10 16 17 32 14 37
-10 16 8 29 34 26 16 -2 28 -10 30 -20z m-262 -144 c27 -7 30 -22 11 -49 -19
-26 -58 -14 -103 33 -49 50 -56 72 -31 94 19 17 21 16 59 -27 22 -25 51 -48
64 -51z m777 76 c9 -11 13 -20 9 -20 -4 0 -2 -4 4 -8 20 -14 67 -83 60 -89
-11 -12 -106 104 -106 130 0 13 15 7 33 -13z m-586 -80 c-15 -25 -90 -61 -138
-66 l-40 -5 16 31 c9 17 13 35 10 40 -6 9 -1 11 38 14 6 1 14 3 17 6 3 3 19
13 35 22 29 16 31 16 52 -4 18 -16 20 -24 10 -38z m152 43 c10 -10 22 -34 26
-53 4 -19 12 -41 17 -47 6 -7 7 -13 3 -13 -5 0 0 -10 11 -22 12 -13 13 -18 4
-13 -12 7 -13 6 -4 -6 13 -17 16 -59 4 -59 -5 0 -12 10 -16 23 -5 12 -9 24
-10 27 -1 3 -5 15 -9 28 -4 12 -12 22 -17 22 -5 0 -7 4 -4 9 3 4 -3 32 -14 62
-26 70 -25 74 9 42z m541 -131 c0 -12 -3 -12 -15 -2 -8 7 -15 13 -15 15 0 1 7
2 15 2 8 0 15 -7 15 -15z m-668 -9 c14 -72 -43 -302 -109 -440 -20 -43 -38
-43 -29 0 4 17 9 53 12 78 2 26 16 87 30 135 15 49 28 103 30 119 9 74 15 99
25 112 16 18 37 16 41 -4z m741 -47 c4 -10 0 -14 -12 -13 -10 0 -18 7 -18 14
0 18 23 17 30 -1z m-926 -328 c-10 -105 -25 -179 -54 -266 -24 -74 -36 -91
-100 -160 -40 -42 -72 -80 -73 -84 0 -14 -41 -8 -46 6 -3 8 2 42 10 76 9 34
16 75 16 91 0 19 19 53 58 106 32 43 67 94 78 113 10 19 22 37 25 40 3 3 19
35 37 73 40 86 57 88 49 5z"/>
<path d="M750 2978 c-46 -49 -52 -108 -16 -178 31 -63 60 -66 85 -10 28 63 20
145 -18 183 l-28 29 -23 -24z m50 -37 c15 -30 12 -133 -6 -156 -15 -20 -15
-20 -34 5 -23 31 -31 71 -23 112 11 56 43 76 63 39z"/>
<path d="M769 2342 c-3 -20 -2 -29 4 -23 5 5 7 19 5 32 -3 20 -5 19 -9 -9z"/>
<path d="M826 2093 c4 -12 12 -28 20 -34 20 -17 17 2 -6 31 -18 24 -19 24 -14
3z"/>
<path d="M980 1801 c0 -11 -59 -33 -71 -25 -5 3 -9 0 -9 -5 0 -6 5 -11 10 -11
21 0 80 29 80 39 0 6 -2 11 -5 11 -3 0 -5 -4 -5 -9z"/>
<path d="M860 1791 c0 -5 7 -11 15 -15 8 -3 15 -1 15 3 0 5 -7 11 -15 15 -8 3
-15 1 -15 -3z"/>
<path d="M712 1816 c-18 -6 -30 -14 -27 -18 6 -6 65 19 65 28 0 2 -1 4 -2 3
-2 0 -18 -6 -36 -13z"/>
<path d="M1230 1708 c-13 -5 -31 -15 -40 -23 -8 -7 -58 -30 -110 -50 -101 -39
-142 -57 -137 -61 4 -4 113 19 153 32 23 8 65 32 94 54 29 21 58 41 64 43 6 2
9 7 6 9 -3 3 -16 1 -30 -4z"/>
<path d="M649 1687 c-26 -19 -58 -78 -51 -95 3 -10 1 -13 -6 -8 -21 13 -23
-15 -3 -32 20 -16 20 -18 5 -47 -25 -46 -22 -131 7 -180 26 -45 73 -92 101
-101 10 -3 40 -27 65 -52 36 -37 41 -40 24 -14 -12 17 -26 32 -31 32 -25 0
-53 117 -40 169 5 21 7 22 20 9 17 -16 101 -41 162 -47 11 -1 29 -39 34 -69
12 -78 16 -92 25 -98 7 -4 9 1 4 15 -4 12 -7 52 -6 88 0 73 -26 145 -58 163
-11 5 -26 16 -33 23 -22 22 -92 63 -107 62 -39 -1 -15 -28 61 -70 23 -13 34
-45 18 -55 -9 -6 -9 -9 1 -12 8 -3 11 -8 7 -12 -8 -10 -86 14 -100 31 -16 20
-7 23 34 9 28 -10 35 -10 32 -1 -6 16 -71 35 -92 28 -10 -4 -13 -2 -8 5 4 7 3
12 -3 12 -5 0 -11 -8 -13 -17 -3 -15 -4 -15 -20 1 -16 16 -18 16 -18 1 0 -9
11 -26 25 -38 21 -19 23 -28 18 -69 -3 -27 -9 -48 -14 -48 -18 0 -69 64 -80
99 -6 20 -9 59 -7 86 2 40 6 50 21 49 11 -1 17 5 17 17 0 21 34 39 63 33 9 -1
17 2 17 8 0 7 -16 9 -45 6 -71 -8 -82 24 -31 89 30 36 32 49 5 30z"/>
<path d="M1400 1591 c-66 -21 -177 -83 -200 -112 -14 -18 -96 -52 -136 -57
-53 -6 -89 10 -109 48 -12 21 -14 22 -15 6 0 -18 73 -97 88 -95 28 5 44 -5 56
-35 8 -19 23 -39 34 -45 18 -10 20 -8 17 23 l-3 34 62 1 c77 1 123 19 176 69
45 44 51 67 18 76 -20 5 -21 8 -8 17 12 8 9 10 -13 6 -42 -7 -42 9 1 26 45 18
91 28 132 29 17 1 33 5 36 10 6 10 -101 9 -136 -1z m-30 -130 c0 -12 -57 -55
-85 -65 -36 -13 -95 -17 -95 -6 0 5 27 23 60 39 33 16 60 28 60 25 0 -2 10 1
23 6 29 12 37 12 37 1z"/>
<path d="M1160 1330 c0 -6 7 -10 15 -10 8 0 15 -4 15 -8 0 -5 11 -14 25 -20
19 -9 23 -8 19 2 -6 16 -74 49 -74 36z"/>
<path d="M1170 1184 c0 -12 87 -96 120 -115 14 -8 44 -21 67 -27 40 -12 86
-48 110 -87 10 -17 10 -15 3 13 -11 40 -38 64 -110 93 -46 18 -111 57 -130 78
-23 25 -60 53 -60 45z"/>
<path d="M932 1115 c0 -16 2 -22 5 -12 2 9 2 23 0 30 -3 6 -5 -1 -5 -18z"/>
<path d="M961 1101 c-1 -33 -4 -41 -14 -35 -7 5 -4 1 6 -9 11 -10 21 -16 22
-15 1 2 -1 26 -5 53 l-7 50 -2 -44z"/>
<path d="M1151 1099 c-22 -18 -47 -17 -36 2 4 5 2 9 -2 9 -5 0 -14 -19 -20
-43 -15 -54 -52 -79 -86 -57 -20 12 -21 12 -8 -3 20 -25 58 -20 94 12 17 16
45 40 61 53 16 13 27 29 25 35 -3 7 -13 4 -28 -8z"/>
<path d="M866 1055 c9 -14 21 -25 27 -25 6 0 0 11 -13 25 -13 14 -25 25 -27
25 -2 0 4 -11 13 -25z"/>
<path d="M937 938 c14 -29 33 -70 44 -90 10 -20 19 -43 19 -51 0 -7 11 -23 24
-34 20 -18 23 -28 19 -60 -4 -29 -1 -42 13 -53 16 -14 16 -13 6 7 -9 15 -9 30
-2 48 13 34 13 55 -1 55 -13 0 -48 41 -49 57 0 7 17 15 38 18 20 4 46 10 57
13 11 3 22 7 25 7 3 1 35 11 71 22 55 18 137 36 173 38 5 0 11 5 13 10 2 6
-14 10 -34 10 -36 1 -61 5 -143 23 -19 4 -54 5 -77 2 -25 -4 -44 -3 -46 3 -1
5 -10 2 -19 -7 -9 -9 -26 -16 -37 -16 -11 0 -26 -7 -35 -15 -22 -22 -32 -19
-46 15 -7 16 -18 34 -25 40 -8 6 -2 -13 12 -42z m311 -3 c12 -4 22 -10 22 -14
0 -12 -135 -51 -205 -60 -52 -6 -70 -5 -81 6 -22 22 4 41 83 63 65 17 133 19
181 5z"/>
<path d="M1256 797 c-36 -19 -79 -32 -112 -35 -55 -5 -72 -22 -36 -38 49 -21
124 2 181 56 63 60 57 63 -33 17z"/>
<path d="M1305 628 c-45 -13 -145 -18 -193 -8 -24 4 -40 4 -35 -1 19 -19 120
-25 189 -11 38 7 71 15 73 18 10 9 -6 11 -34 2z"/>
</g>
</svg>
